<svg width="124" height="48" viewBox="0 0 124 48" fill="none" xmlns="http://www.w3.org/2000/svg">
    <mask id="path-1-outside-1_2304_18582" maskUnits="userSpaceOnUse" x="1" y="0" width="122" height="47" fill="black">
        <rect fill="white" x="1" width="122" height="47"/>
        <path fill-rule="evenodd" clip-rule="evenodd" d="M119.647 38.2503C119.648 38.2115 119.649 38.1724 119.649 38.1332V24.6664C119.649 21.2068 118.656 18.0735 116.338 15.6687C114.127 13.3431 111.268 12.2119 108.042 12.2119C107.042 12.2119 106.068 12.301 105.136 12.4916V7.42709C105.136 5.56351 103.621 4.05278 101.753 4.05278H95.156C93.2876 4.05278 91.773 5.56351 91.773 7.42709V15.3376C91.2323 14.9231 90.6577 14.5421 90.0507 14.1947C87.7447 12.875 85.2284 12.2119 82.5619 12.2119C78.3827 12.2119 74.7179 13.6373 71.8138 16.534L71.798 16.5498C71.6033 16.7466 71.4154 16.9467 71.2341 17.1501V10.2953C71.2278 8.31419 70.4531 6.54757 69.0442 5.17245C67.6599 3.76132 65.8774 3 63.8812 3C61.8676 3 60.0778 3.77293 58.6744 5.17269C57.2732 6.57029 56.5401 8.3516 56.5401 10.3222C56.5401 11.2009 56.6855 12.0404 56.9676 12.826H50.2409L50.2248 12.826H47.0457L47.027 12.8291V7.42709C47.027 5.56351 45.5124 4.05278 43.644 4.05278H37.0472C35.1788 4.05278 33.6642 5.56351 33.6642 7.42709V8.81059C32.6385 7.60141 31.4408 6.56859 30.0665 5.73542C27.5432 4.17623 24.6887 3.43866 21.6123 3.43866C18.0573 3.43866 14.8484 4.53164 12.1534 6.7589L12.1467 6.76452L12.1351 6.7742C12.1058 6.79876 12.0766 6.82341 12.0477 6.84815C11.513 7.28334 10.9733 7.7535 10.5134 8.15419C10.2258 8.4047 9.96945 8.62805 9.76495 8.79874C6.91338 11.1896 5.52421 14.4342 5.52421 18.1809C5.52421 21.8018 6.79578 24.9848 9.58855 27.2481C9.58855 27.2481 6.36151 29.6448 5.68676 30.0349C4.2547 30.863 3.63368 32.603 4.21903 34.1474C5.37846 37.2064 7.59808 39.894 10.3403 41.6415L10.3687 41.6593C13.1316 43.3818 16.3832 44.1462 19.9459 44.1462C23.9049 44.1462 27.4625 43.1686 30.3137 40.9172L30.343 40.8938L30.3581 40.8815C30.6889 40.6111 31.0009 40.3297 31.2941 40.0376C31.2941 41.9196 32.7389 43.5321 34.6771 43.5321H66.5011C67.9208 43.5321 69.1363 42.6598 69.6381 41.4232C69.8789 40.8298 69.8789 40.2413 69.8789 40.2413C72.6908 42.8272 76.3612 44.1462 80.1919 44.1462C82.8607 44.1462 85.3743 43.5108 87.6649 42.2162L87.6807 42.2072C88.3267 41.8375 88.935 41.428 89.5039 40.9793C89.8717 42.4458 91.2016 43.5321 92.7859 43.5321H116.264C118.132 43.5321 119.647 42.0214 119.647 40.1578V38.2503Z"/>
    </mask>
    <path d="M119.647 38.2503L117.205 38.167L117.204 38.2086V38.2503H119.647ZM116.338 15.6687L114.567 17.3518L114.573 17.358L114.579 17.3642L116.338 15.6687ZM105.136 12.4916H102.693V15.4849L105.625 14.8851L105.136 12.4916ZM91.773 15.3376L90.2867 17.2765L94.2161 20.2887V15.3376H91.773ZM90.0507 14.1947L88.8372 16.3151L88.8372 16.3151L90.0507 14.1947ZM71.8138 16.534L70.0885 14.8042L70.083 14.8098L71.8138 16.534ZM71.798 16.5498L70.0672 14.8257L70.0613 14.8316L71.798 16.5498ZM71.2341 17.1501H68.791V23.5636L73.058 18.7755L71.2341 17.1501ZM71.2341 10.2953H73.6771L73.6771 10.2875L71.2341 10.2953ZM69.0442 5.17245L67.3003 6.88334L67.3189 6.90226L67.3378 6.92078L69.0442 5.17245ZM58.6744 5.17269L56.9491 3.44298L56.9491 3.44298L58.6744 5.17269ZM56.9676 12.826V15.269H60.4407L59.2669 12.0003L56.9676 12.826ZM50.2409 12.826V10.3829L50.2349 10.3829L50.2409 12.826ZM50.2248 12.826V15.2691L50.2307 15.2691L50.2248 12.826ZM47.0457 12.826V10.383H46.844L46.6451 10.416L47.0457 12.826ZM47.027 12.8291H44.584V15.7118L47.4276 15.2391L47.027 12.8291ZM33.6642 8.81059L31.8012 10.391L36.1073 15.4671V8.81059H33.6642ZM30.0665 5.73542L28.7823 7.81371L28.7911 7.81917L28.8 7.82456L30.0665 5.73542ZM12.1534 6.7589L10.5971 4.87573L10.5947 4.8777L12.1534 6.7589ZM12.1467 6.76452L10.5879 4.88331L10.5812 4.88897L12.1467 6.76452ZM12.1351 6.7742L10.5696 4.89865L10.5655 4.90208L12.1351 6.7742ZM12.0477 6.84815L13.59 8.74282L13.6121 8.72484L13.6337 8.70634L12.0477 6.84815ZM10.5134 8.15419L8.90864 6.31211L8.90864 6.31211L10.5134 8.15419ZM9.76495 8.79874L8.19947 6.92316L8.19533 6.92663L9.76495 8.79874ZM9.58855 27.2481L11.0452 29.2094L13.5727 27.3323L11.1267 25.3501L9.58855 27.2481ZM5.68676 30.0349L6.90967 32.1499H6.90967L5.68676 30.0349ZM4.21903 34.1474L6.50349 33.2815L4.21903 34.1474ZM10.3403 41.6415L9.02734 43.7018L9.0376 43.7082L10.3403 41.6415ZM10.3687 41.6593L9.06597 43.7261L9.07623 43.7325L10.3687 41.6593ZM30.3137 40.9172L31.8278 42.8345L31.8383 42.8261L30.3137 40.9172ZM30.343 40.8938L31.8676 42.8027L31.8756 42.7963L31.8835 42.7899L30.343 40.8938ZM30.3581 40.8815L31.8986 42.7777L31.9042 42.7731L30.3581 40.8815ZM31.2941 40.0376H33.7371V34.1556L29.5699 38.3068L31.2941 40.0376ZM69.6381 41.4232L71.9018 42.3419L71.9019 42.3419L69.6381 41.4232ZM69.8789 40.2413L71.5326 38.4431L67.4359 34.6757V40.2413H69.8789ZM87.6649 42.2162L88.867 44.343L88.8724 44.34L87.6649 42.2162ZM87.6807 42.2072L88.8881 44.331L88.8941 44.3276L87.6807 42.2072ZM89.5039 40.9793L91.8736 40.385L90.9553 36.7234L87.9911 39.061L89.5039 40.9793ZM122.088 38.3337C122.091 38.2672 122.092 38.2003 122.092 38.1332H117.206C117.206 38.1445 117.206 38.1558 117.205 38.167L122.088 38.3337ZM122.092 38.1332V24.6664H117.206V38.1332H122.092ZM122.092 24.6664C122.092 20.7318 120.952 16.9353 118.097 13.9732L114.579 17.3642C116.36 19.2116 117.206 21.6817 117.206 24.6664H122.092ZM118.109 13.9855C115.401 11.1364 111.883 9.7688 108.042 9.7688V14.6549C110.654 14.6549 112.854 15.5497 114.567 17.3518L118.109 13.9855ZM108.042 9.7688C106.898 9.7688 105.758 9.87063 104.646 10.0981L105.625 14.8851C106.377 14.7313 107.186 14.6549 108.042 14.6549V9.7688ZM107.579 12.4916V7.42709H102.693V12.4916H107.579ZM107.579 7.42709C107.579 4.20833 104.965 1.60973 101.753 1.60973V6.49583C102.278 6.49583 102.693 6.91869 102.693 7.42709H107.579ZM101.753 1.60973H95.156V6.49583H101.753V1.60973ZM95.156 1.60973C91.9443 1.60973 89.33 4.20834 89.33 7.42709H94.2161C94.2161 6.91868 94.631 6.49583 95.156 6.49583V1.60973ZM89.33 7.42709V15.3376H94.2161V7.42709H89.33ZM93.2594 13.3987C92.629 12.9154 91.9628 12.4742 91.2642 12.0743L88.8372 16.3151C89.3526 16.61 89.8357 16.9308 90.2867 17.2765L93.2594 13.3987ZM91.2642 12.0743C88.5848 10.5409 85.6495 9.7688 82.5619 9.7688V14.6549C84.8073 14.6549 86.9047 15.2091 88.8372 16.3151L91.2642 12.0743ZM82.5619 9.7688C77.7809 9.7688 73.4816 11.4198 70.0885 14.8043L73.5391 18.2637C75.9543 15.8547 78.9844 14.6549 82.5619 14.6549V9.7688ZM70.083 14.8098L70.0672 14.8257L73.5288 18.274L73.5446 18.2581L70.083 14.8098ZM70.0613 14.8316C69.8371 15.0581 69.6201 15.2892 69.4102 15.5247L73.058 18.7755C73.2107 18.6041 73.3695 18.435 73.5347 18.2681L70.0613 14.8316ZM73.6771 17.1501V10.2953H68.791V17.1501H73.6771ZM73.6771 10.2875C73.6687 7.62989 72.6134 5.24221 70.7506 3.42411L67.3378 6.92078C68.2929 7.85292 68.7869 8.99849 68.791 10.303L73.6771 10.2875ZM70.7882 3.46155C68.9498 1.58764 66.5411 0.556951 63.8812 0.556951V5.44305C65.2137 5.44305 66.3699 5.935 67.3003 6.88334L70.7882 3.46155ZM63.8812 0.556951C61.1982 0.556951 58.7943 1.60254 56.9491 3.44298L60.3997 6.90241C61.3612 5.94332 62.5369 5.44305 63.8812 5.44305V0.556951ZM56.9491 3.44298C55.0858 5.30157 54.097 7.70635 54.097 10.3222H58.9832C58.9832 8.99686 59.4607 7.83901 60.3997 6.90241L56.9491 3.44298ZM54.097 10.3222C54.097 11.4735 54.2881 12.5929 54.6683 13.6516L59.2669 12.0003C59.0829 11.4878 58.9832 10.9283 58.9832 10.3222H54.097ZM56.9676 10.3829H50.2409V15.269H56.9676V10.3829ZM50.2349 10.3829L50.2188 10.383L50.2307 15.2691L50.2468 15.269L50.2349 10.3829ZM50.2248 10.383H47.0457V15.2691H50.2248V10.383ZM46.6451 10.416L46.6264 10.4191L47.4276 15.2391L47.4463 15.236L46.6451 10.416ZM49.4701 12.8291V7.42709H44.584V12.8291H49.4701ZM49.4701 7.42709C49.4701 4.20833 46.8557 1.60973 43.644 1.60973V6.49583C44.1691 6.49583 44.584 6.91869 44.584 7.42709H49.4701ZM43.644 1.60973H37.0472V6.49583H43.644V1.60973ZM37.0472 1.60973C33.8355 1.60973 31.2212 4.20833 31.2212 7.42709H36.1073C36.1073 6.91869 36.5222 6.49583 37.0472 6.49583V1.60973ZM31.2212 7.42709V8.81059H36.1073V7.42709H31.2212ZM35.5272 7.23019C34.3361 5.82602 32.9384 4.61957 31.333 3.64629L28.8 7.82456C29.9432 8.51761 30.9409 9.3768 31.8012 10.391L35.5272 7.23019ZM31.3507 3.65713C28.4005 1.83417 25.0916 0.99561 21.6123 0.99561V5.88171C24.2858 5.88171 26.6859 6.5183 28.7823 7.81371L31.3507 3.65713ZM21.6123 0.99561C17.5247 0.99561 13.7566 2.26462 10.5971 4.87574L13.7098 8.64207C15.9403 6.79866 18.59 5.88171 21.6123 5.88171V0.99561ZM10.5947 4.8777L10.588 4.88332L13.7054 8.64572L13.7122 8.6401L10.5947 4.8777ZM10.5812 4.88897L10.5696 4.89865L13.7006 8.64976L13.7122 8.64007L10.5812 4.88897ZM10.5655 4.90208C10.5307 4.93126 10.496 4.96055 10.4616 4.98995L13.6337 8.70634C13.6572 8.68626 13.6809 8.66626 13.7047 8.64633L10.5655 4.90208ZM10.5053 4.95347C9.93389 5.41866 9.36376 5.91563 8.90864 6.31211L12.1181 9.99627C12.5829 9.59137 13.0922 9.14803 13.59 8.74282L10.5053 4.95347ZM8.90864 6.31211C8.61387 6.5689 8.37968 6.77275 8.19947 6.92316L11.3304 10.6743C11.5592 10.4834 11.8378 10.2405 12.1181 9.99627L8.90864 6.31211ZM8.19533 6.92663C4.74384 9.82043 3.08116 13.7744 3.08116 18.1809H7.96726C7.96726 15.094 9.08292 12.5587 11.3346 10.6709L8.19533 6.92663ZM3.08116 18.1809C3.08116 22.4113 4.59312 26.3443 8.05037 29.1461L11.1267 25.3501C8.99843 23.6253 7.96726 21.1924 7.96726 18.1809H3.08116ZM9.58855 27.2481C8.13192 25.2868 8.13193 25.2868 8.13193 25.2868C8.13191 25.2868 8.13189 25.2868 8.13186 25.2868C8.13179 25.2869 8.13167 25.287 8.1315 25.2871C8.13117 25.2873 8.13064 25.2877 8.12992 25.2883C8.12849 25.2893 8.12628 25.291 8.12334 25.2931C8.11745 25.2975 8.1086 25.3041 8.09695 25.3127C8.07366 25.33 8.03921 25.3555 7.995 25.3883C7.90658 25.4537 7.77922 25.5479 7.62418 25.6622C7.31379 25.891 6.89386 26.1994 6.45395 26.5193C6.01267 26.8401 5.55776 27.1678 5.1755 27.4367C4.98404 27.5713 4.81755 27.6865 4.68385 27.7765C4.61714 27.8214 4.56321 27.857 4.52155 27.8837C4.47683 27.9124 4.46 27.9222 4.46386 27.92L6.90967 32.1499C7.38779 31.8734 8.49759 31.0745 9.32742 30.4711C9.77861 30.143 10.2076 29.8279 10.5234 29.5952C10.6814 29.4787 10.8114 29.3825 10.9021 29.3154C10.9475 29.2818 10.983 29.2555 11.0073 29.2375C11.0195 29.2285 11.0288 29.2215 11.0352 29.2168C11.0384 29.2144 11.0408 29.2126 11.0425 29.2114C11.0433 29.2108 11.044 29.2103 11.0444 29.21C11.0446 29.2098 11.0448 29.2097 11.045 29.2096C11.045 29.2095 11.0451 29.2095 11.0451 29.2094C11.0451 29.2094 11.0452 29.2094 9.58855 27.2481ZM4.46386 27.92C1.99789 29.3458 0.923869 32.3467 1.93456 35.0133L6.50349 33.2815C6.34348 32.8594 6.5115 32.3801 6.90967 32.1499L4.46386 27.92ZM1.93456 35.0133C3.28486 38.5758 5.85116 41.6777 9.02735 43.7017L11.6532 39.5812C9.345 38.1103 7.47207 35.837 6.50349 33.2815L1.93456 35.0133ZM9.0376 43.7082L9.06598 43.7261L11.6713 39.5926L11.6429 39.5747L9.0376 43.7082ZM9.07623 43.7325C12.31 45.7484 16.0352 46.5893 19.9459 46.5893V41.7032C16.7313 41.7032 13.9533 41.0151 11.6611 39.5861L9.07623 43.7325ZM19.9459 46.5893C24.3053 46.5893 28.4414 45.5085 31.8277 42.8345L28.7997 38.9998C26.4837 40.8286 23.5045 41.7032 19.9459 41.7032V46.5893ZM31.8383 42.8261L31.8676 42.8027L28.8184 38.9848L28.7891 39.0082L31.8383 42.8261ZM31.8835 42.7899L31.8986 42.7776L28.8176 38.9854L28.8025 38.9976L31.8835 42.7899ZM31.9042 42.7731C32.2956 42.4532 32.6671 42.1182 33.0182 41.7684L29.5699 38.3068C29.3346 38.5412 29.0822 38.7691 28.812 38.9899L31.9042 42.7731ZM28.851 40.0376C28.851 43.1376 31.262 45.9751 34.6771 45.9751V41.089C34.2158 41.089 33.7371 40.7016 33.7371 40.0376H28.851ZM34.6771 45.9751H66.5011V41.089H34.6771V45.9751ZM66.5011 45.9751C68.9462 45.9751 71.0377 44.471 71.9018 42.3419L67.3744 40.5045C67.2348 40.8485 66.8954 41.089 66.5011 41.089V45.9751ZM71.9019 42.3419C72.1225 41.7981 72.2219 41.2895 72.2696 40.939C72.2943 40.7577 72.3072 40.6025 72.3141 40.485C72.3175 40.4258 72.3195 40.3752 72.3206 40.3344C72.3212 40.3139 72.3215 40.2959 72.3217 40.2803C72.3218 40.2726 72.3219 40.2654 72.3219 40.2589C72.3219 40.2557 72.322 40.2526 72.322 40.2496C72.322 40.2482 72.322 40.2468 72.322 40.2454C72.322 40.2447 72.322 40.244 72.322 40.2433C72.322 40.243 72.322 40.2425 72.322 40.2423C72.322 40.2418 72.322 40.2413 69.8789 40.2413C67.4359 40.2413 67.4359 40.2409 67.4359 40.2404C67.4359 40.2402 67.4359 40.2397 67.4359 40.2394C67.4359 40.2388 67.4359 40.2382 67.4359 40.2375C67.4359 40.2363 67.4359 40.2351 67.4359 40.2339C67.4359 40.2315 67.4359 40.2293 67.4359 40.2272C67.436 40.2229 67.436 40.2192 67.436 40.2159C67.4361 40.2092 67.4362 40.2044 67.4363 40.2012C67.4365 40.1949 67.4366 40.1949 67.4363 40.2002C67.4356 40.2115 67.4335 40.2405 67.4281 40.2805C67.4155 40.3726 67.3945 40.4549 67.3744 40.5045L71.9019 42.3419ZM68.2252 42.0396C71.524 45.0732 75.7993 46.5893 80.1919 46.5893V41.7032C76.923 41.7032 73.8576 40.5812 71.5326 38.4431L68.2252 42.0396ZM80.1919 46.5893C83.2623 46.5893 86.193 45.8544 88.867 44.343L86.4628 40.0894C84.5557 41.1673 82.4591 41.7032 80.1919 41.7032V46.5893ZM88.8724 44.34L88.8881 44.331L86.4732 40.0834L86.4575 40.0924L88.8724 44.34ZM88.8941 44.3276C89.6417 43.8998 90.3503 43.4231 91.0167 42.8976L87.9911 39.061C87.5196 39.4328 87.0117 39.7752 86.4672 40.0869L88.8941 44.3276ZM87.1343 41.5736C87.769 44.1047 90.0586 45.9751 92.7859 45.9751V41.089C92.3446 41.089 91.9744 40.787 91.8736 40.385L87.1343 41.5736ZM92.7859 45.9751H116.264V41.089H92.7859V45.9751ZM116.264 45.9751C119.476 45.9751 122.09 43.3765 122.09 40.1578H117.204C117.204 40.6662 116.789 41.089 116.264 41.089V45.9751ZM122.09 40.1578V38.2503H117.204V40.1578H122.09Z" fill="white" mask="url(#path-1-outside-1_2304_18582)"/>
    <path d="M22.3678 38.8242C19.2893 38.8242 16.6945 38.1662 14.5835 36.8503C12.4725 35.505 10.9626 33.6334 10.0537 31.2354L16.1228 27.7262C17.3542 30.5628 19.5092 31.9811 22.5877 31.9811C25.373 31.9811 26.7657 31.1477 26.7657 29.4808C26.7657 28.545 26.3112 27.8431 25.4023 27.3752C24.4641 26.8196 22.7929 26.2201 20.3887 25.5767C17.9259 24.9041 15.8443 23.9391 14.1437 22.6816C12.2673 21.1609 11.3291 19.0115 11.3291 16.2333C11.3291 13.3966 12.3406 11.1302 14.3636 9.43406C16.416 7.73791 18.8495 6.88983 21.6641 6.88983C24.1856 6.88983 26.4139 7.48933 28.3489 8.68833C30.284 9.85809 31.8086 11.5689 32.9227 13.8206L26.9856 17.2861C25.8714 14.9173 24.0976 13.7329 21.6641 13.7329C20.638 13.7329 19.8317 13.9522 19.2453 14.3909C18.6589 14.8296 18.3657 15.3852 18.3657 16.0578C18.3657 16.7889 18.7176 17.4469 19.4212 18.0318C20.1835 18.6167 21.6788 19.2308 23.9071 19.8742L26.7657 20.7953C27.4987 21.0293 28.3489 21.4241 29.3165 21.9797C30.372 22.5061 31.1636 23.0764 31.6913 23.6905C33.0986 25.2112 33.8023 27.112 33.8023 29.3931C33.8023 32.2882 32.7468 34.5985 30.6358 36.3239C28.5248 37.9908 25.7688 38.8242 22.3678 38.8242Z" fill="white"/>
    <path d="M49.9848 27.2436L58.2089 38.2101H50.7325L43.6958 28.5157V38.2101H37.099V7.50395H43.6958V25.8838L50.2927 16.2771H57.989L49.9848 27.2436Z" fill="white"/>
    <path d="M66.7037 13.2065C65.9414 13.9669 65.0178 14.347 63.933 14.347C62.8482 14.347 61.91 13.9669 61.1183 13.2065C60.356 12.4169 59.9749 11.4811 59.9749 10.3991C59.9749 9.31708 60.356 8.3959 61.1183 7.63555C61.91 6.84597 62.8482 6.45117 63.933 6.45117C65.0178 6.45117 65.9414 6.84597 66.7037 7.63555C67.4953 8.3959 67.8911 9.31708 67.8911 10.3991C67.8911 11.4811 67.4953 12.4169 66.7037 13.2065ZM67.2314 38.2101H60.6346V16.2771H67.2314V38.2101Z" fill="white"/>
    <path d="M82.6137 38.8242C79.2713 38.8242 76.486 37.713 74.2577 35.4904C72.0588 33.2679 70.9593 30.5189 70.9593 27.2436C70.9593 23.9683 72.0588 21.2194 74.2577 18.9968C76.486 16.7743 79.2713 15.663 82.6137 15.663C84.6954 15.663 86.6304 16.1748 88.4189 17.1983C90.2074 18.2219 91.5854 19.5817 92.5529 21.2779L86.7917 24.6117C86.0001 22.974 84.5781 22.1552 82.5257 22.1552C81.0891 22.1552 79.9017 22.6377 78.9635 23.6028C78.0252 24.5386 77.5561 25.7522 77.5561 27.2436C77.5561 28.7351 78.0252 29.9633 78.9635 30.9284C79.9017 31.8642 81.0891 32.3321 82.5257 32.3321C84.6074 32.3321 86.0294 31.5132 86.7917 29.8756L92.5529 33.1655C91.5854 34.9202 90.2074 36.3093 88.4189 37.3328C86.6598 38.3271 84.7247 38.8242 82.6137 38.8242Z" fill="white"/>
    <path d="M108.094 15.663C110.468 15.663 112.418 16.4672 113.943 18.0756C115.526 19.7133 116.318 21.9358 116.318 24.7433V38.2101H109.721V25.7083C109.721 24.4508 109.369 23.4712 108.665 22.7693C107.962 22.0674 107.038 21.7165 105.895 21.7165C104.605 21.7165 103.593 22.1113 102.86 22.9009C102.156 23.6612 101.805 24.7725 101.805 26.2347V38.2101H95.2078V7.50395H101.805V18.3388C103.124 16.555 105.22 15.663 108.094 15.663Z" fill="white"/>
</svg>
